# xmcd
#
# Track frame offsets: 
#        150
#        18770
#        38535
#        55637
#        84955
#        106395
#        139117
#        168490
#        181175
#        196802
#        217775
#        246757
#        271377
#
# Disc length: 3830 seconds
#
# Revision: 2
# Processed by: cddbd v1.5.1PL2 Copyright (c) Steve Scherf et al.
# Submitted via: ExactAudioCopy v0.95b3
#
DISCID=9b0ef40d
DTITLE=Jim White - No Such Place
DYEAR=2001
DGENRE=Country
TTITLE0=Handcuffed to a Fence in Mississippi
TTITLE1=The Wound That Never Heals
TTITLE2=Corvair
TTITLE3=The Wrong Kind of Love
TTITLE4=10 Miles to Go on a 9 Mile Road
TTITLE5=Christmas Day
TTITLE6=Bound to Forget
TTITLE7=God Was Drunk When He Made Me
TTITLE8=King of the Road
TTITLE9=Ghost-Town of My Brain
TTITLE10=Hey! You Going My Way???
TTITLE11=The Love That Never Fails
TTITLE12=Corvair Reprise
EXTD=
EXTT0=
EXTT1=
EXTT2=
EXTT3=
EXTT4=
EXTT5=
EXTT6=
EXTT7=
EXTT8=
EXTT9=
EXTT10=
EXTT11=
EXTT12=
PLAYORDER=
